<svg xmlns="http://www.w3.org/2000/svg" viewBox="0 0 1000 1000"><path d="M480.2 165c-69 4-135.9 29.8-190.7 73.6-14.2 11.3-39.7 36.8-50.9 50.9-40.4 50.7-64.4 108.2-72.2 173-2.2 19-2.2 56 0 75 7.7 64 30.4 119.1 70.2 170.5 11.4 14.8 40.6 44 55.4 55.4 51.4 39.8 106.5 62.5 170.5 70.2 19 2.2 56 2.2 75 0 64.6-7.8 122.9-32.1 173-72.2 14.1-11.3 39.6-36.8 50.9-50.9 51.9-64.9 78-145.7 73.6-227.8-1.1-18.8-1.2-20.6-4.1-38.2-9.2-55.7-33.7-110.2-69.6-155-10.5-13.1-34.2-37.2-46.9-47.7-52-42.8-116.4-69.6-181.9-75.7-16.9-1.5-36.5-2-52.3-1.1zm101.5 196.9c6.2 1.2 11 4.9 13.8 10.5l2.5 5V461h28.9c19.4 0 29.9.4 32.2 1.2 5.4 1.8 8.7 4.8 11.4 10.2l2.5 5v50.1c0 34.9-.3 51.2-1.1 53.6-2.9 8.5-10.2 13.8-19.1 13.9h-4.7l-.3 19.5c-.3 18.6-.4 19.5-2.5 21.7-1.5 1.4-3.5 2.2-5.8 2.2-3.3 0-5.1-1.6-25.3-21.7L592.5 595H486.3l-4.4-2.3c-2.8-1.5-5.4-4-7.1-6.8l-2.8-4.4v-20.8l-.1-20.7h-39.4L403 569.5c-27.7 27.7-29.7 29.5-33.1 29.5-2.4 0-4.2-.7-5.7-2.3-2.1-2.2-2.2-3.2-2.4-29.5l-.3-27.2-10-.3c-10.8-.3-14-1.4-18.7-6.4-6-6.3-5.8-3.5-5.8-83 0-68.3.2-73.1 1.9-76.8 2-4.5 8-10.2 11.4-10.9 1.2-.3 3.1-.7 4.2-.9 3.8-.9 233-.6 237.2.2z"/><path d="M344.5 379.2c-.3.7-.4 33.2-.3 72.3l.3 71 12.5.2c14.7.3 16.3.6 19 3.5 1.9 2 2 3.5 2 23.7v21.5l24.3-24.2 24.3-24.2h45.3l.1-23.5c0-13.5.5-24.7 1.1-26.3 1.5-3.9 5.8-8.2 10.4-10.3 3.7-1.7 7.4-1.9 51.3-1.9H582v-39.6c0-25.3-.4-40.2-1-41.5-1-1.9-3.4-1.9-118.6-1.9-93 0-117.6.3-117.9 1.2zm198.1 39.1c3.2 3.8 3.1 7.2-.5 10.8l-2.9 2.9H385.8l-2.9-2.9c-1.6-1.6-2.9-4-2.9-5.3 0-3 2.5-6.7 5.4-7.8 1.1-.5 36.5-.8 78.4-.7l76.4.2 2.4 2.8zm-92 54c3 3.6 3 6.8 0 10.4l-2.4 2.8h-63.4l-2.4-2.8c-3.2-3.8-3.1-7.2.6-10.8l2.9-3 31.2.3 31.1.3 2.4 2.8z"/><path d="M488.7 478.7c-.4.3-.7 22.5-.7 49.3 0 36.5.3 48.9 1.2 49.8.9.9 14.7 1.2 55.7 1.2h54.6l15.7 15.7 15.8 15.8v-12.3c0-12.8 1.1-17.3 4.5-18.6.9-.3 5.3-.6 9.8-.6 4.5 0 8.8-.4 9.5-.8 1-.7 1.2-11.4 1-50.3l-.3-49.4-83.1-.3c-45.7-.1-83.4.1-83.7.5zm50.8 43.5c5.5 4.8 2.1 13.8-5.2 13.8-7.3 0-10.8-8-5.8-13.4 3-3.3 7.4-3.4 11-.4zm38 .3c5.1 5 1.8 13.5-5.2 13.5-4.4 0-8.3-3.7-8.3-8 0-1.9.9-4 2.5-5.5 1.5-1.6 3.6-2.5 5.5-2.5s4 .9 5.5 2.5zm38 0c5.3 5.2 1.8 13.5-5.6 13.5-7.1 0-10.5-8.5-5.4-13.5 1.5-1.6 3.6-2.5 5.5-2.5s4 .9 5.5 2.5z"/></svg>